<svg xmlns="http://www.w3.org/2000/svg" width="46" height="46" viewBox="0 0 46 46">
  <g id="add_textmedia" transform="translate(-1006 -676)">
    <g id="add_textmedia-2" data-name="add_textmedia" transform="translate(0 -1)">
      <rect id="Rectangle_991" data-name="Rectangle 991" width="46" height="46" transform="translate(1006 677)" fill="none"/>
    </g>
    <path id="Path_1778" data-name="Path 1778" d="M1.094-21.852H6.016v5.469A1.094,1.094,0,0,0,7.109-15.29H8.2A1.094,1.094,0,0,0,9.3-16.384v-5.469h4.922a1.094,1.094,0,0,0,1.094-1.094V-24.04a1.094,1.094,0,0,0-1.094-1.094H1.094A1.094,1.094,0,0,0,0-24.04v1.094A1.094,1.094,0,0,0,1.094-21.852ZM33.906-10.617a1.256,1.256,0,0,0-.773-.32,1.256,1.256,0,0,0-.773.32L20.009,1.735a1.256,1.256,0,0,0-.32.773,1.256,1.256,0,0,0,.32.773l.772.773a1.094,1.094,0,0,0,1.546,0L34.679-8.3A1.256,1.256,0,0,0,35-9.071a1.256,1.256,0,0,0-.32-.773ZM1.094-27.344H14.219a1.094,1.094,0,0,0,1.094-1.094v-1.094a1.094,1.094,0,0,0-1.094-1.094H1.094A1.094,1.094,0,0,0,0-29.531v1.094A1.094,1.094,0,0,0,1.094-27.344Zm31.879-3.281a2.312,2.312,0,0,0-.291.023L22.526-29.04a2.143,2.143,0,0,0-1.744,2.166v7.3a6.844,6.844,0,0,0-1.094-.116c-2.416,0-4.375,1.474-4.375,3.292S17.271-13.1,19.688-13.1s4.375-1.475,4.375-3.293v-9.561l7.656-1.178v5.376a6.844,6.844,0,0,0-1.094-.116c-2.416,0-4.375,1.469-4.375,3.281s1.959,3.281,4.375,3.281S35-16.782,35-18.594v-9.844A2.114,2.114,0,0,0,32.972-30.625ZM22.422-5.469A2.735,2.735,0,0,0,25.156-8.2a2.735,2.735,0,0,0-2.734-2.734A2.735,2.735,0,0,0,19.688-8.2,2.735,2.735,0,0,0,22.422-5.469Zm9.821,4.375a2.734,2.734,0,1,0,2.734,2.734h0a2.736,2.736,0,0,0-2.734-2.734ZM14.025-.327l1.868-1.1a1.217,1.217,0,0,0,.513-.927,1.288,1.288,0,0,0-.165-.577l-.58-.928a1.216,1.216,0,0,0-.927-.513,1.288,1.288,0,0,0-.577.165L11.628-2.721,10.034-4.316a4.687,4.687,0,0,0,2.45-4.1v0a4.706,4.706,0,0,0-4.7-4.7,4.706,4.706,0,0,0-4.7,4.7A5.407,5.407,0,0,0,4.153-5.464L2.376-4.393A5.613,5.613,0,0,0,.166-1.485,5.547,5.547,0,0,0,0-.253,5.446,5.446,0,0,0,.66,2.128,4.67,4.67,0,0,0,4.689,4.369a5.852,5.852,0,0,0,2.557-.716L11.1,1.389l2.666,2.666a1.094,1.094,0,0,0,1.547,0l.774-.774a1.256,1.256,0,0,0,.32-.773,1.256,1.256,0,0,0-.32-.773ZM5.532.856A1.5,1.5,0,0,1,3.471.436a1.492,1.492,0,0,1,.6-2.018L6.6-3.108l2.1,2.1ZM7.781-7h0A1.422,1.422,0,0,1,6.358-8.423,1.422,1.422,0,0,1,7.78-9.844,1.422,1.422,0,0,1,9.2-8.423h0A1.426,1.426,0,0,1,7.781-7Z" transform="translate(1012 713)" fill="#3486d5"/>
  </g>
</svg>
