<svg xmlns="http://www.w3.org/2000/svg" width="46" height="46" viewBox="0 0 46 46">
  <g id="add_text" transform="translate(-865 -677)">
    <rect id="Rectangle_990" data-name="Rectangle 990" width="46" height="46" transform="translate(865 677)" fill="none"/>
    <path id="Path_1771" data-name="Path 1771" d="M29.531-28.437H1.094A1.094,1.094,0,0,0,0-27.344v6.563a1.094,1.094,0,0,0,1.094,1.094H3.281a1.094,1.094,0,0,0,1.094-1.094v-2.187h8.2V-2.187H9.844A1.094,1.094,0,0,0,8.75-1.094V1.094A1.094,1.094,0,0,0,9.844,2.188H20.781a1.094,1.094,0,0,0,1.094-1.094V-1.094a1.094,1.094,0,0,0-1.094-1.094H18.047V-22.969h8.2v2.188a1.094,1.094,0,0,0,1.094,1.094h2.188a1.094,1.094,0,0,0,1.094-1.094v-6.562A1.094,1.094,0,0,0,29.531-28.437Z" transform="translate(873 714)" fill="#3486d5"/>
  </g>
</svg>
