<svg xmlns="http://www.w3.org/2000/svg" width="46" height="46" viewBox="0 0 46 46">
  <g id="add_courses" transform="translate(-1148 -677)">
    <rect id="Rectangle_992" data-name="Rectangle 992" width="46" height="46" transform="translate(1148 677)" fill="none"/>
    <path id="Path_1779" data-name="Path 1779" d="M39.338.45,31.346-29.814a1.1,1.1,0,0,0-1.34-.773l-1.056.282a1.094,1.094,0,0,0-.809,1.13,17.745,17.745,0,0,1-5.322,1.426,1.094,1.094,0,0,0-1.265-.574l-.774.207v-.321c0-1.208-.98-2.187-2.734-2.187H1.641A2.185,2.185,0,0,0,0-28.437V2.188A2.185,2.185,0,0,0,1.641,4.375H18.047c1.755,0,2.734-.98,2.734-2.187V-22.7L27.716,3.564a1.1,1.1,0,0,0,1.34.773l1.057-.283a1.093,1.093,0,0,0,.809-1.129A17.739,17.739,0,0,1,36.243,1.5a1.094,1.094,0,0,0,1.265.574l1.057-.283A1.1,1.1,0,0,0,39.338.45ZM8.75,1.094H3.281V-2.187H8.75Zm0-6.562H3.281V-20.781H8.75Zm0-18.594H3.281v-3.281H8.75ZM17.5,1.094H12.031V-2.187H17.5Zm0-6.562H12.031V-20.781H17.5Zm0-18.594H12.031v-3.281H17.5ZM30.214.206,23.566-25.041a27.138,27.138,0,0,0,5.283-1.416L35.5-1.21A27.233,27.233,0,0,0,30.214.206Z" transform="translate(1152 713)" fill="#3486d5"/>
  </g>
</svg>
