<svg xmlns="http://www.w3.org/2000/svg" width="46" height="46" viewBox="0 0 46 46">
  <g id="ic_keypoints_blue" transform="translate(-1290 -676)">
    <rect id="Rectangle_992" data-name="Rectangle 992" width="46" height="46" transform="translate(1290 676)" fill="none"/>
    <path id="Path_1780" data-name="Path 1780" d="M4.223-3.213l1.2-1.377A1.574,1.574,0,0,0,5.767-5.5c0-.017,0-.044,0-.061v-.226a.693.693,0,0,0-.775-.776h-3.9a.547.547,0,0,0-.547.547v1.094a.547.547,0,0,0,.547.547H2.655c-.22.221-.557.6-.752.841l-.383.479a.909.909,0,0,0-.191,1.017l.072.132a.833.833,0,0,0,.837.539h.323c.706,0,1.09.167,1.09.621,0,.323-.287.562-.982.562A3.388,3.388,0,0,1,1.611-.4C1.168-.662.809-.636.545-.184L.163.453a.736.736,0,0,0,.179,1.09,4.91,4.91,0,0,0,2.529.645A3,3,0,0,0,6.187-.829,2.471,2.471,0,0,0,4.223-3.213Zm29.684-.615H12.031a1.094,1.094,0,0,0-1.094,1.094v1.094A1.094,1.094,0,0,0,12.031-.547H33.906A1.094,1.094,0,0,0,35-1.641V-2.734A1.094,1.094,0,0,0,33.906-3.828Zm0-21.875H12.031a1.094,1.094,0,0,0-1.094,1.094v1.094a1.094,1.094,0,0,0,1.094,1.094H33.906A1.094,1.094,0,0,0,35-23.516v-1.094A1.094,1.094,0,0,0,33.906-25.7Zm0,10.938H12.031a1.094,1.094,0,0,0-1.094,1.094v1.094a1.094,1.094,0,0,0,1.094,1.094H33.906A1.094,1.094,0,0,0,35-12.578v-1.094A1.094,1.094,0,0,0,33.906-14.766ZM1.094-19.687H5.469a.547.547,0,0,0,.547-.547v-1.094a.547.547,0,0,0-.547-.547H4.375v-6.016a.547.547,0,0,0-.547-.547H2.188a.6.6,0,0,0-.488.3l-.547,1.094a.649.649,0,0,0-.058.245.547.547,0,0,0,.546.547h.547v4.375H1.094a.547.547,0,0,0-.547.547v1.094A.547.547,0,0,0,1.094-19.687ZM.827-8.75H5.469A.547.547,0,0,0,6.016-9.3v-1.094a.547.547,0,0,0-.547-.547H2.825c.224-.7,3.3-1.277,3.3-3.858a2.768,2.768,0,0,0-3.04-2.7A3.312,3.312,0,0,0,.324-16.218a.676.676,0,0,0,.191,1.051l.587.47c.383.312.752.169,1.1-.167a1.053,1.053,0,0,1,.642-.262h0a.582.582,0,0,1,.634.6C3.486-13.659,0-13.035,0-9.8v.273A.748.748,0,0,0,.827-8.75Z" transform="translate(1296 712.438)" fill="#3486d5"/>
  </g>
</svg>
