<svg xmlns="http://www.w3.org/2000/svg" width="46" height="46" viewBox="0 0 46 46">
  <g id="add_banner" transform="translate(-723 -677)">
    <rect id="Rectangle_989" data-name="Rectangle 989" width="46" height="46" transform="translate(723 677)" fill="none"/>
    <path id="Path_1770" data-name="Path 1770" d="M31.719,0A3.281,3.281,0,0,0,35-3.281V-22.969a3.281,3.281,0,0,0-3.281-3.281H3.281A3.281,3.281,0,0,0,0-22.969V-3.281A3.281,3.281,0,0,0,3.281,0ZM7.656-22.422a3.828,3.828,0,0,1,3.828,3.828,3.828,3.828,0,0,1-3.828,3.828,3.828,3.828,0,0,1-3.828-3.828A3.828,3.828,0,0,1,7.656-22.422ZM4.375-4.375V-7.656l4.889-4.889a.82.82,0,0,1,1.16,0L14.219-8.75l9.264-9.264a.82.82,0,0,1,1.16,0l5.982,5.982v7.656Z" transform="translate(729 713)" fill="#3486d5"/>
  </g>
</svg>
